<svg width="16" height="16" viewBox="0 0 16 16" fill="none" xmlns="http://www.w3.org/2000/svg">
<path d="M13.6 4.5H2.4C1.6268 4.5 1 5.1268 1 5.9V12.9C1 13.6732 1.6268 14.3 2.4 14.3H13.6C14.3732 14.3 15 13.6732 15 12.9V5.9C15 5.1268 14.3732 4.5 13.6 4.5Z" stroke="#FBFBFB" stroke-width="1.5" stroke-linecap="round" stroke-linejoin="round"/>
<path d="M10.7992 14.3V3.09995C10.7992 2.72865 10.6517 2.37255 10.3892 2.11C10.1266 1.84745 9.77052 1.69995 9.39922 1.69995H6.59922C6.22792 1.69995 5.87182 1.84745 5.60927 2.11C5.34672 2.37255 5.19922 2.72865 5.19922 3.09995V14.3" stroke="#FBFBFB" stroke-width="1.5" stroke-linecap="round" stroke-linejoin="round"/>
</svg>
