<svg width="18" height="18" viewBox="0 0 18 18" fill="none" xmlns="http://www.w3.org/2000/svg">
<path d="M6.09126 17C6.89459 17 7.54581 16.3488 7.54581 15.5455C7.54581 14.7421 6.89459 14.0909 6.09126 14.0909C5.28794 14.0909 4.63672 14.7421 4.63672 15.5455C4.63672 16.3488 5.28794 17 6.09126 17Z" stroke="#FBFBFB" stroke-width="1.5" stroke-linecap="round" stroke-linejoin="round"/>
<path d="M14.8178 17C15.6212 17 16.2724 16.3488 16.2724 15.5455C16.2724 14.7421 15.6212 14.0909 14.8178 14.0909C14.0145 14.0909 13.3633 14.7421 13.3633 15.5455C13.3633 16.3488 14.0145 17 14.8178 17Z" stroke="#FBFBFB" stroke-width="1.5" stroke-linecap="round" stroke-linejoin="round"/>
<path d="M4.39636 4.63636H17L15.7782 10.7382C15.7117 11.073 15.5295 11.3738 15.2636 11.5879C14.9977 11.8019 14.6649 11.9156 14.3236 11.9091H6.63636C6.28123 11.9121 5.93726 11.7851 5.66931 11.552C5.40137 11.3189 5.22798 10.9958 5.18182 10.6436L4.07636 2.26545C4.03052 1.91581 3.85922 1.59472 3.59433 1.36194C3.32944 1.12916 2.989 1.00053 2.63636 1H1" stroke="#FBFBFB" stroke-width="1.5" stroke-linecap="round" stroke-linejoin="round"/>
</svg>
