<svg width="20" height="22" viewBox="0 0 20 22" fill="none" xmlns="http://www.w3.org/2000/svg">
<path d="M1.23438 16.9369L9.26641 21.5741C9.49456 21.7054 9.75318 21.7745 10.0164 21.7745C10.2796 21.7745 10.5383 21.7054 10.7664 21.5741L18.7985 16.9368C19.0263 16.8048 19.2154 16.6154 19.347 16.3875C19.4786 16.1595 19.5481 15.901 19.5485 15.6378V6.36325C19.5481 6.10003 19.4786 5.84153 19.347 5.61357C19.2154 5.38562 19.0263 5.19619 18.7985 5.0642L10.7665 0.426903C10.5383 0.295644 10.2797 0.226563 10.0165 0.226562C9.75323 0.226562 9.49462 0.295644 9.26645 0.426903L1.23438 5.0642C1.00663 5.19618 0.817508 5.38561 0.685898 5.61357C0.554288 5.84152 0.484799 6.10003 0.484375 6.36325V15.6378C0.484799 15.9011 0.554288 16.1596 0.685898 16.3875C0.817508 16.6155 1.00663 16.8049 1.23438 16.9369ZM10.7664 2.15898L18.0485 6.36325V14.6778L10.7664 10.5619V2.15898ZM10.014 11.8596L17.3807 16.0234L10.0166 20.275L2.64981 16.022L10.014 11.8596ZM1.98438 6.36325L9.26641 2.15898V10.559L1.98438 14.6751V6.36325Z" fill="#00C6A2"/>
</svg>
