<svg width="15" height="18" viewBox="0 0 15 18" fill="none" xmlns="http://www.w3.org/2000/svg">
<path fill-rule="evenodd" clip-rule="evenodd" d="M10.5 6.5H12.09C12.98 6.5 13.42 7.58 12.79 8.21L8.2 12.8C7.81 13.19 7.18 13.19 6.79 12.8L2.2 8.21C1.57 7.58 2.02 6.5 2.91 6.5H4.5V1.5C4.5 0.95 4.95 0.5 5.5 0.5H9.5C10.05 0.5 10.5 0.95 10.5 1.5V6.5ZM1.5 17.5C0.95 17.5 0.5 17.05 0.5 16.5C0.5 15.95 0.95 15.5 1.5 15.5H13.5C14.05 15.5 14.5 15.95 14.5 16.5C14.5 17.05 14.05 17.5 13.5 17.5H1.5Z" fill="#0791BA"/>
</svg>
