<svg width="18" height="18" viewBox="0 0 18 18" fill="none" xmlns="http://www.w3.org/2000/svg">
<path d="M6.69717 10.2549L5.95 10.32L5.95013 10.3215L6.69717 10.2549ZM10.5331 6.0354L9.97812 5.53089L10.5331 6.0354ZM12.293 10.0086L12.878 10.478L12.293 10.0086ZM15.6111 5.87374L16.1961 6.34314L15.6111 5.87374ZM17.2511 16V6.18667H15.7511V16H17.2511ZM15.0262 5.40434L11.7081 9.53921L12.878 10.478L16.1961 6.34314L15.0262 5.40434ZM12.1531 9.69568V6.37174H10.6531V9.69568H12.1531ZM9.97812 5.53089L6.14221 9.7504L7.25212 10.7594L11.088 6.5399L9.97812 5.53089ZM7.44433 10.1898L6.71703 1.848L5.2227 1.97829L5.95 10.32L7.44433 10.1898ZM4.97364 0.25H3.82382V1.75H4.97364V0.25ZM2.08056 1.8466L0.848598 15.8466L2.34282 15.9781L3.57478 1.97809L2.08056 1.8466ZM2.59186 17.75H7.2982V16.25H2.59186V17.75ZM7.2982 17.75H15.5011V16.25H7.2982V17.75ZM5.95013 10.3215L6.55116 17.0666L8.04524 16.9334L7.44421 10.1883L5.95013 10.3215ZM3.82382 0.25C2.91677 0.25 2.16007 0.943045 2.08056 1.8466L3.57478 1.97809C3.58614 1.84901 3.69424 1.75 3.82382 1.75V0.25ZM6.71703 1.848C6.6382 0.943845 5.88123 0.25 4.97364 0.25V1.75C5.1033 1.75 5.21144 1.84912 5.2227 1.97829L6.71703 1.848ZM12.1531 6.37174C12.1531 5.2292 10.7467 4.68548 9.97812 5.53089L11.088 6.5399C10.9343 6.70899 10.6531 6.60024 10.6531 6.37174H12.1531ZM11.7081 9.53921C11.8559 9.35505 12.1531 9.45955 12.1531 9.69568H10.6531C10.6531 10.8763 12.139 11.3988 12.878 10.478L11.7081 9.53921ZM17.2511 6.18667C17.2511 5.00602 15.7651 4.48351 15.0262 5.40434L16.1961 6.34314C16.0483 6.52731 15.7511 6.4228 15.7511 6.18667H17.2511ZM15.7511 16C15.7511 16.1381 15.6392 16.25 15.5011 16.25V17.75C16.4676 17.75 17.2511 16.9665 17.2511 16H15.7511ZM0.848598 15.8466C0.758569 16.8697 1.56482 17.75 2.59186 17.75V16.25C2.44514 16.25 2.32996 16.1242 2.34282 15.9781L0.848598 15.8466Z" fill="#FBFBFB"/>
</svg>
