<svg width="18" height="14" viewBox="0 0 18 14" fill="none" xmlns="http://www.w3.org/2000/svg">
<path d="M3.4 10.9999H1.8C1.35818 10.9999 1 10.6417 1 10.1999V2.1999C1 1.75808 1.35818 1.3999 1.8 1.3999H9C9.44184 1.3999 9.8 1.75808 9.8 2.1999V3.9999M3.4 10.9999C3.4 11.8836 4.11634 12.5999 5 12.5999C5.88366 12.5999 6.6 11.8836 6.6 10.9999M3.4 10.9999C3.4 10.1162 4.11634 9.3999 5 9.3999C5.88366 9.3999 6.6 10.1162 6.6 10.9999M6.6 10.9999H9.8M9.8 10.9999H12.2M9.8 10.9999V3.9999M9.8 3.9999H11.6343H13.4686C13.6808 3.9999 13.8843 4.08419 14.0343 4.23421L16.7657 6.76558C16.9157 6.91558 17 7.1191 17 7.33126V10.1999C17 10.6417 16.6418 10.9999 16.2 10.9999H15.4M15.4 10.9999C15.4 11.8836 14.6837 12.5999 13.8 12.5999C12.9163 12.5999 12.2 11.8836 12.2 10.9999M15.4 10.9999C15.4 10.1162 14.6837 9.3999 13.8 9.3999C12.9163 9.3999 12.2 10.1162 12.2 10.9999" stroke="#FBFBFB" stroke-width="1.5" stroke-linecap="round" stroke-linejoin="round"/>
</svg>
