<svg width="24" height="25" viewBox="0 0 24 25" fill="none" xmlns="http://www.w3.org/2000/svg">
<circle cx="12" cy="12.7466" r="11.5" stroke="currentColor"/>
<path d="M11.9928 10.0558C12.477 10.0558 12.8696 10.4484 12.8696 10.9326V17.8698C12.8696 18.354 12.477 18.7466 11.9928 18.7466C11.5085 18.7466 11.1159 18.354 11.1159 17.8698V10.9326C11.1159 10.4484 11.5085 10.0558 11.9928 10.0558ZM11 7.77469C11 7.48018 11.087 7.23654 11.2609 7.04377C11.4396 6.84564 11.686 6.74658 12 6.74658C12.3092 6.74658 12.5531 6.84564 12.7319 7.04377C12.9106 7.23654 13 7.48018 13 7.77469C13 8.06385 12.9106 8.30481 12.7319 8.49759C12.5531 8.69036 12.3092 8.78674 12 8.78674C11.686 8.78674 11.4396 8.69036 11.2609 8.49759C11.087 8.30481 11 8.06385 11 7.77469Z" fill="currentColor"/>
</svg>
