<svg width="20" height="24" viewBox="0 0 20 24" fill="none" xmlns="http://www.w3.org/2000/svg">
<path d="M1.75 23.2462L18.2518 23.2499H18.2521C18.3999 23.2499 18.5462 23.2208 18.6827 23.1642C18.8192 23.1077 18.9433 23.0248 19.0477 22.9203C19.1522 22.8158 19.2351 22.6917 19.2916 22.5552C19.3481 22.4186 19.3772 22.2723 19.3771 22.1245L19.375 16.6159C19.3752 16.3879 19.3059 16.1653 19.1763 15.9778L14.125 8.64895V5.67187H16C16.2983 5.67153 16.5842 5.55289 16.7951 5.34199C17.006 5.13108 17.1247 4.84514 17.125 4.54687V0.75H2.875V4.54687C2.87534 4.84514 2.99397 5.13109 3.20488 5.342C3.41578 5.55291 3.70174 5.67154 4 5.67187H5.87111V8.70098L0.825439 15.9766C0.694644 16.1647 0.624687 16.3885 0.625001 16.6176V22.1212C0.625361 22.4194 0.744003 22.7054 0.954903 22.9163C1.1658 23.1272 1.45174 23.2458 1.75 23.2462ZM7.37111 9.1702V4.17187H4.375V2.25H15.625V4.17187H12.625V9.11578L15.6468 13.5H4.36839L7.37111 9.1702ZM2.125 16.7349L3.32814 15H16.6806L17.875 16.733L17.8767 21.75L2.125 21.7462V16.7349Z" fill="#00C6A2"/>
</svg>
