<svg width="81" height="80" viewBox="0 0 81 80" fill="none" xmlns="http://www.w3.org/2000/svg">
<path fill-rule="evenodd" clip-rule="evenodd" d="M55.1367 26.8641C53.8778 25.7725 52.0674 25.7976 51.0286 26.1144C51.7089 25.2884 53.2944 24.6107 53.7608 24.5286C54.1163 24.6604 55.1367 25.697 55.1367 26.8641ZM59.1561 22.3442C58.3281 17.9643 48.0363 20.8668 42.8531 19.0064C42.754 20.2833 44.4489 22.3291 46.0702 23.0859C43.2991 25.4647 40.8111 30.2573 40.3085 36.1124C39.8082 30.2573 37.32 25.4648 34.5489 23.0862C36.1699 22.3294 37.8665 20.2836 37.7658 19.007C32.5829 20.8674 22.2907 17.9652 21.4613 22.345C21.2869 23.2724 21.7377 24.6846 22.2248 25.091C22.312 24.7972 22.7671 23.8361 24.2018 23.6208C31.4528 22.5372 37.5067 33.5894 32.0419 38.0579C31.9586 38.1266 32.0058 38.2515 32.1182 38.2515H48.5022C48.6133 38.2515 48.6605 38.1263 48.5783 38.0582C43.1122 33.5899 49.166 22.5378 56.4173 23.6213C57.8528 23.8366 58.3067 24.7975 58.3942 25.0913C58.8812 24.6849 59.3322 23.2726 59.1565 22.3453L59.1561 22.3442ZM60.9199 12.2925C60.7894 11.8787 65.0412 11.8682 65.0412 14.5002C65.0412 16.2637 62.4979 17.0991 62.4979 18.9296C62.4979 19.7819 63.4252 20.4069 63.7099 20.4069C63.0546 17.4686 65.7633 19.0064 66.4949 19.5556C65.0413 15.6041 68.313 15.6288 67.9909 13.817C67.7669 12.5511 64.9227 12.9334 63.8937 12.2925C62.0672 11.1556 59.9064 6.73101 58.4825 11.1556C61.137 13.5927 59.5924 17.1804 56.2224 17.1804C56.2224 17.1804 56.2037 17.7062 56.2346 17.7479C60.254 17.5535 61.6551 14.6318 60.9199 12.2925ZM14.0259 19.5556C14.7573 19.0064 17.4657 17.4686 16.8121 20.4069C17.0953 20.4069 18.0227 19.7819 18.0227 18.9296C18.0227 17.0991 15.4792 16.2637 15.4792 14.5002C15.4792 11.8682 19.7308 11.8787 19.6006 12.2925C18.8664 14.6321 20.2675 17.5538 24.287 17.7479C24.3167 17.7062 24.2982 17.1801 24.2982 17.1801C20.9295 17.1801 19.3848 13.5927 22.0379 11.1553C20.614 6.73098 18.4533 11.1553 16.6268 12.2922C15.5975 12.9334 12.7534 12.5508 12.5296 13.817C12.2089 15.6294 15.4794 15.6047 14.0261 19.5562L14.0259 19.5556ZM25.4388 26.8641C26.6988 25.7725 28.5098 25.7976 29.5469 26.1144C28.8694 25.2884 27.2811 24.6107 26.8157 24.5286C26.4603 24.6604 25.4385 25.697 25.4385 26.8641H25.4388ZM42.2208 2.36432L40.2605 0L38.2996 2.36432L40.26 4.85217L42.2211 2.36432H42.2208ZM53.4135 9.51294L52.0197 7.83295L50.6264 9.51294L52.0193 11.1551L53.4137 9.51294H53.4135ZM64.7228 58.0792L62.9557 56.2296L61.1881 58.079L62.9557 59.7018L64.723 58.079L64.7228 58.0792ZM29.8953 9.51294L28.5014 7.83295L27.1084 9.51294L28.5017 11.1551L29.8956 9.51294H29.8953ZM25.9016 17.7482H31.1024C35.4747 17.7482 37.4419 15.0939 38.0364 12.7922H42.4855C43.0802 15.0939 45.0464 17.7479 49.4202 17.7479H54.6208C54.6208 17.7479 55.5305 16.5274 55.7587 15.923C56.58 13.7481 55.5304 12.7335 53.9991 12.7335L52.0193 14.5079L50.0402 12.734C48.5088 12.734 47.4592 13.7481 48.2806 15.9232C48.3855 16.2011 48.6366 16.6097 48.8743 16.9689C47.0289 16.7182 44.6732 15.4688 44.1567 12.7922C44.1567 12.7922 45.52 10.6504 45.8626 9.78345C47.0919 6.66592 45.5217 5.39178 43.2254 5.39178L40.2608 8.83801L37.2961 5.39178C34.9999 5.39178 33.43 6.66592 34.6606 9.78345C35.0013 10.6504 36.3663 12.7925 36.3663 12.7925C35.8484 15.4687 33.4933 16.7182 31.6479 16.9692C31.8867 16.6095 32.1366 16.2011 32.241 15.923C33.0609 13.7481 32.0142 12.7338 30.4818 12.7338L28.502 14.5082L26.5222 12.7343C24.99 12.7343 23.9433 13.7484 24.7632 15.9235C24.9915 16.5276 25.9025 17.7485 25.9025 17.7485L25.9016 17.7482ZM79.6681 33.6904C78.6643 34.1929 72.7753 36.921 65.2317 35.9119C65.3099 35.556 65.3763 35.1978 65.4306 34.8376C70.4513 34.2437 74.5324 33.4015 77.1333 31.9708C80.0979 30.3389 81.3943 26.4431 79.898 23.5453C79.8591 23.4722 79.7517 23.4591 79.6981 23.5206C78.8778 24.4542 73.7218 30.0012 65.5982 31.7256C65.5775 31.3094 65.5392 30.8942 65.4831 30.4811C69.4287 28.2684 73.2804 25.7187 75.1152 23.3874C77.8874 19.8626 77.6326 15.3663 74.9942 13.074C74.9668 13.0507 74.9306 13.0402 74.8948 13.0452C74.859 13.0502 74.8271 13.0701 74.8073 13.1C73.9726 14.4621 66.1591 26.9509 57.5809 32.3429C57.4763 32.4091 57.3708 32.4739 57.2644 32.5374C57.0184 32.6851 56.9915 33.0014 57.2005 33.189C58.1901 34.0754 58.8046 35.3089 58.8046 36.6786C58.8046 39.0602 56.9487 41.0406 54.4952 41.4703C53.2485 41.7092 51.4493 41.6398 49.7203 41.0744C49.6426 41.0497 49.5621 41.1004 49.5621 41.1776V48.7192C49.5621 48.8406 49.7486 48.8708 49.7925 48.7549C50.8437 46.0013 53.9894 45.4163 55.3653 45.4163C55.8603 48.3589 56.7447 50.7963 57.8934 52.1083C59.7643 54.2401 62.8191 54.2101 64.1436 52.7363C64.1653 52.7119 64.1746 52.679 64.1688 52.6469C64.163 52.6149 64.1428 52.5871 64.1138 52.5716C63.3355 52.1295 58.8826 49.4255 57.9913 44.9948C58.3412 44.8774 58.6833 44.7382 59.0154 44.5782C60.4529 46.9307 62.545 49.026 64.2293 49.8264C67.0587 51.1684 69.6488 50.5157 70.7975 48.5509C70.8391 48.4817 70.7882 48.3955 70.7038 48.3878C68.9536 48.2497 63.5827 46.7273 61.2959 43.0186C61.5603 42.781 61.8129 42.5308 62.0527 42.2689C64.4462 44.0708 67.8293 45.6635 70.2516 45.9886C73.086 46.3697 76.2975 45.4751 76.3752 42.2156C76.3766 42.1506 76.3175 42.097 76.2476 42.1008C75.2396 42.1612 68.5688 42.4482 63.8151 39.7497C63.9803 39.4392 64.1343 39.123 64.2769 38.8018C64.2769 38.8018 71.4595 40.481 74.8628 39.9249C78.2448 39.373 80.2256 36.8796 79.8433 33.7774C79.8322 33.7005 79.7411 33.6547 79.6683 33.6912L79.6681 33.6904ZM16.2444 38.8007C16.3874 39.122 16.5418 39.4383 16.7074 39.7489C11.9551 42.446 5.28696 42.1612 4.27459 42.1C4.20351 42.0961 4.14416 42.1522 4.14583 42.2162C4.22496 45.4746 7.43529 46.3689 10.2697 45.9878C12.6909 45.6627 16.0757 44.07 18.4683 42.2683C18.7085 42.5299 18.961 42.7801 19.2252 43.018C16.9372 46.7265 11.5671 48.2491 9.8173 48.3873C9.73261 48.3955 9.68329 48.4814 9.72355 48.5506C10.8722 50.5154 13.4623 51.1681 16.2931 49.8262C17.9757 49.0257 20.0679 46.9305 21.5048 44.578C21.8373 44.7376 22.1795 44.8767 22.5294 44.9946C21.6381 49.4252 17.1851 52.1287 16.4068 52.5716C16.3781 52.5873 16.3581 52.615 16.3523 52.647C16.3465 52.679 16.3557 52.7118 16.3772 52.7363C17.7017 54.2098 20.7576 54.2398 22.6285 52.1081C23.7772 50.7961 24.6605 48.3587 25.1553 45.4161C26.5325 45.4161 29.677 46.001 30.728 48.7544C30.7732 48.8705 30.9598 48.8403 30.9598 48.7187V41.1774C30.9598 41.1005 30.878 41.0494 30.8002 41.0741C29.0718 41.6398 27.2719 41.7084 26.0266 41.4695C23.572 41.0403 21.7159 39.0599 21.7159 36.6786C21.7159 35.3094 22.3323 34.0746 23.3196 33.1884C23.5307 33.0017 23.502 32.6853 23.258 32.5376C23.1507 32.4742 23.0443 32.4095 22.9386 32.3434C14.3655 26.9544 6.55649 14.4741 5.71461 13.1033C5.69462 13.0727 5.66216 13.0521 5.62565 13.0468C5.58914 13.0416 5.55218 13.0521 5.52416 13.0759C2.88968 15.3696 2.6336 19.864 5.40609 23.3879C7.24089 25.7193 11.0926 28.269 15.0369 30.4817C14.9813 30.8946 14.9434 31.3096 14.9231 31.7256C6.80611 30.0028 1.65405 24.4652 0.826054 23.525C0.770513 23.4607 0.660804 23.4736 0.623321 23.5469C-0.870519 26.4467 0.426151 30.3392 3.38773 31.9711C5.98889 33.4018 10.0703 34.244 15.0908 34.838C15.145 35.1981 15.2113 35.5563 15.2894 35.9122C7.75353 36.92 1.8676 34.1981 0.855788 33.6918C0.780821 33.6539 0.68965 33.7008 0.680209 33.7791C0.298973 36.8809 2.27847 39.3719 5.66042 39.9241C9.06266 40.4801 16.245 38.801 16.245 38.801L16.2444 38.8007ZM62.9561 62.084L60.3387 60.0475C59.2941 60.6627 58.5267 61.6391 58.2285 62.7839C56.6541 63.0017 52.3625 62.059 52.7799 61.4338C57.4835 54.8909 53.8858 50.9951 49.5617 51.212V55.6057C49.5617 57.0171 48.3164 58.1608 46.7823 58.1608H43.7964C41.6545 58.1608 40.26 60.29 40.26 60.29C40.26 60.29 38.8655 58.1605 36.7236 58.1605H33.7379C32.2024 58.1605 30.9598 57.0168 30.9598 55.6057V51.212C26.6358 50.9951 23.0353 54.8906 27.7403 61.4335C28.154 62.0524 23.7425 63.0432 21.6733 62.7927C21.128 62.2336 20.3417 61.8811 19.4612 61.8811C19.0868 61.8813 18.7155 61.9473 18.3645 62.076C18.3645 62.076 10.2332 54.4622 10.0844 54.3878L10.1511 54.234C10.6148 53.3773 9.90594 52.4436 9.45779 52.5095C9.97841 51.8917 10.0026 49.1882 7.11432 48.5627C7.199 49.1058 7.24198 50.2142 7.24198 50.2142C7.24198 50.2142 5.01288 49.0224 3.89333 50.051C2.90985 51.2024 4.27459 53.2913 4.27459 53.2913C4.27459 53.2913 3.13391 53.3188 2.57164 53.2715C3.39825 56.0368 6.17102 55.841 6.77078 55.2953C6.73191 55.7347 7.7343 56.3616 8.58395 55.8591L8.9571 55.6806C9.02291 55.7677 16.9422 63.1673 16.9422 63.1673C16.5784 63.7011 16.4055 64.3563 16.5249 65.0549C16.7129 66.1465 17.6319 67.0513 18.8065 67.2863C19.6358 67.4511 20.4155 67.2918 21.0408 66.9299L23.1372 68.854C23.3232 69.0215 23.5759 69.1259 23.8574 69.1061C24.3703 69.072 24.7543 68.6612 24.7154 68.1898C24.6988 67.9769 24.5889 67.7943 24.4373 67.6556C24.4039 67.6194 22.3021 65.6895 22.3021 65.6895C24.0361 64.4876 27.2666 63.6404 29.9478 63.6404C30.4187 63.6404 30.6402 63.2461 30.4781 62.8597C29.2633 59.971 31.8748 57.878 34.5765 59.5816C35.7549 60.3244 36.9519 61.7877 37.8537 64.2292C33.4214 65.2905 27.8559 68.2147 26.73 71.4067C26.2963 72.6391 27.7284 74.3191 29.4677 74.6571C29.4985 74.6638 29.5306 74.658 29.5571 74.6411C29.5835 74.6242 29.6021 74.5975 29.6085 74.567C30.5171 69.8019 35.6988 66.251 38.395 65.648C38.5302 66.0069 38.486 65.8908 38.6215 66.2483C35.6849 67.6218 32.8371 70.5184 32.0241 73.9624C31.6507 75.5394 33.4291 76.961 34.8971 77.3501C34.971 77.3693 35.0435 77.3188 35.0477 77.2485C35.3267 72.8934 37.2712 69.1945 39.0132 67.512C39.061 67.8411 39.0969 68.1718 39.1207 68.5034C39.1207 68.5034 37.3369 73.4181 37.3369 77.0041C37.3369 78.6726 39.8443 79.8372 40.2144 80C40.6773 79.8372 43.1826 78.6726 43.1826 77.0041C43.1826 73.4178 41.3995 68.5031 41.3995 68.5031C41.4238 68.1714 41.4601 67.8408 41.5083 67.5117C43.2493 69.195 45.195 72.892 45.4729 77.2471C45.4762 77.2818 45.4947 77.3132 45.5236 77.3331C45.5526 77.3529 45.5888 77.3592 45.6228 77.3501C47.0928 76.961 48.8695 75.5394 48.4977 73.9624C47.683 70.5189 44.8367 67.6218 41.9004 66.2483C42.0345 65.8908 41.9901 66.0067 42.1258 65.6478C44.8234 66.2508 50.0032 69.8016 50.912 74.5668C50.9259 74.63 50.9889 74.6701 51.0528 74.6566C52.791 74.3188 54.2254 72.6383 53.7892 71.4061C52.6661 68.2142 47.0992 65.29 42.666 64.2286C43.5695 61.7874 44.7668 60.3238 45.9452 59.5811C48.6452 57.8774 51.2569 59.9701 50.0421 62.8592C49.88 63.2456 50.0998 63.6399 50.5724 63.6399C53.6054 63.6399 57.3419 64.7232 58.8204 66.1764C59.7653 67.5785 61.511 68.4753 63.4813 68.2834C65.7198 68.0665 67.5453 66.4034 67.7974 64.3472C68.0176 62.5459 67.0755 60.9285 65.5739 60.047L62.9554 62.0837L62.9561 62.084ZM43.6666 48.9603C44.599 48.6182 46.0606 48.895 46.0109 50.2263C45.999 50.5283 46.427 50.5283 46.4581 50.2199C46.7371 48.2263 45.3751 47.6524 43.9496 47.8858C43.7724 47.2004 43.6275 46.6013 43.4625 46.0076C43.3309 45.527 43.2826 44.6247 43.8449 44.6247C44.1481 44.6247 44.0262 45.4639 43.9976 45.8255C43.9726 46.1427 44.0878 46.3346 44.3483 46.3437C44.5104 46.3503 44.7132 46.1454 44.8342 46.0095C45.65 45.097 45.8394 43.6845 44.8836 43.0032C44.084 42.4312 42.0815 42.8568 41.5312 43.6715C41.4479 43.3645 41.0508 42.8579 40.8603 42.6374C40.6751 42.4218 40.627 42.2744 40.883 42.0854C41.0038 41.9937 41.369 41.6346 41.369 41.2639C41.369 41.0447 41.1968 40.64 40.6509 40.64C40.22 40.64 39.741 40.9349 39.741 41.5928C39.741 41.7392 39.7771 41.8957 39.8723 42.0643C39.6002 42.0198 38.8606 42.0379 38.4807 42.1307L43.7321 56.3825C45.2354 55.6488 46.3375 54.4869 46.3375 53.24C46.3375 52.1773 44.7548 52.5299 43.9862 53.3589C43.7391 52.0114 43.5192 50.7672 43.2787 49.5271C43.2132 49.1849 43.389 49.0622 43.6666 48.9592V48.9603ZM36.2407 39.2787L37.3442 42.3104C36.3996 42.5328 34.8802 43.2138 34.8802 44.1158C34.8802 45.3169 37.0293 46.099 38.2716 46.0051C38.2099 46.2791 38.2811 46.5233 38.4743 46.7465C38.0234 46.7465 37.1726 46.9541 36.8933 47.2518C36.2344 46.6449 35.2037 46.4239 34.7136 46.7932C34.2213 47.1656 34.2066 47.7961 34.7206 48.5089C35.0788 49.0024 35.2131 49.4892 34.8105 50.0609C36.308 50.0609 35.7565 48.1354 36.3432 48.1354C36.2663 48.5089 36.3133 48.9408 36.4837 49.42C36.5965 49.7385 36.5965 49.9648 36.4033 50.2712C35.9201 51.0352 35.1687 52.7893 35.2703 54.376C34.7794 54.3732 34.5298 54.2546 34.7028 53.5912C34.7672 53.3446 34.6131 53.1683 34.409 53.4725C34.1835 53.8081 34.0747 54.3815 34.0747 54.6264C34.0747 56.0389 35.7768 56.3234 36.426 56.0247C38.305 57.8233 41.9959 57.3433 43.2315 56.74L36.7333 39.1071C36.6006 38.774 36.1241 38.9333 36.2407 39.2793V39.2787ZM36.0159 53.8037C35.8815 53.0779 36.9027 51.7805 38.2019 50.5283C37.9254 51.3444 38.0972 52.7503 38.6395 53.2347C37.6971 53.2347 36.5779 53.4097 36.0156 53.8037H36.0159Z" fill="currentColor"/>
</svg>
