<svg width="25" height="24" viewBox="0 0 25 24" fill="none" xmlns="http://www.w3.org/2000/svg">
<path fill-rule="evenodd" clip-rule="evenodd" d="M16.3727 7C16.3727 9.206 14.567 11 12.3465 11C10.1261 11 8.32039 9.206 8.32039 7C8.32039 4.794 10.1261 3 12.3465 3C14.567 3 16.3727 4.794 16.3727 7ZM19.3923 20C19.3923 20.552 18.9424 21 18.3857 21H6.30732C5.7507 21 5.30078 20.552 5.30078 20C5.30078 16.14 8.46231 13 12.3465 13C16.2308 13 19.3923 16.14 19.3923 20Z" fill="#231F20"/>
<mask id="mask0_3545_98694" style="mask-type:alpha" maskUnits="userSpaceOnUse" x="5" y="3" width="15" height="18">
<path fill-rule="evenodd" clip-rule="evenodd" d="M16.3727 7C16.3727 9.206 14.567 11 12.3465 11C10.1261 11 8.32039 9.206 8.32039 7C8.32039 4.794 10.1261 3 12.3465 3C14.567 3 16.3727 4.794 16.3727 7ZM19.3923 20C19.3923 20.552 18.9424 21 18.3857 21H6.30732C5.7507 21 5.30078 20.552 5.30078 20C5.30078 16.14 8.46231 13 12.3465 13C16.2308 13 19.3923 16.14 19.3923 20Z" fill="white"/>
</mask>
<g mask="url(#mask0_3545_98694)">
<rect x="0.268066" width="24.1569" height="24" fill="currentColor"/>
</g>
</svg>
