<svg width="25" height="24" viewBox="0 0 25 24" fill="none" xmlns="http://www.w3.org/2000/svg">
<path d="M0.947293 20.2167V22.1605C0.947603 22.46 1.07168 22.7472 1.2923 22.959C1.51292 23.1708 1.81205 23.2899 2.12405 23.2902H3.75335C4.71837 23.2927 5.67432 23.1114 6.56587 22.7569C7.45743 22.4023 8.26687 21.8815 8.94734 21.2246L18.7479 11.816L21.4748 14.4443L22.5818 13.3857L19.8528 10.7554L19.9157 10.695L19.9146 10.6941L23.0048 7.72749C23.7818 6.98157 24.2183 5.96988 24.2183 4.91499C24.2183 3.8601 23.7818 2.84841 23.0048 2.10249L22.8095 1.91499C22.4248 1.54564 21.968 1.25266 21.4654 1.05277C20.9627 0.852882 20.4239 0.75 19.8798 0.75C19.3357 0.75 18.797 0.852882 18.2943 1.05277C17.7916 1.25266 17.3349 1.54564 16.9501 1.91499L13.8092 4.93027L11.2763 2.48907L10.1693 3.54751L12.7138 6.00001L3.09876 15.2304C2.41453 15.8837 1.87206 16.6608 1.50276 17.5167C1.13346 18.3726 0.944662 19.2903 0.947293 20.2167ZM18.055 2.97563C18.2946 2.74557 18.5791 2.56308 18.8922 2.43857C19.2053 2.31406 19.5409 2.24998 19.8798 2.24998C20.2187 2.24998 20.5543 2.31406 20.8675 2.43857C21.1806 2.56308 21.4651 2.74557 21.7047 2.97563L21.9 3.16313C22.3833 3.62811 22.6547 4.25813 22.6547 4.91497C22.6547 5.57181 22.3833 6.20182 21.9 6.6668L18.9032 9.54376L15.0582 5.85249L18.055 2.97563ZM13.8694 7.0119L17.706 10.695L14.3282 13.9376V13.915H6.67869L13.8694 7.0119ZM5.11619 15.415H12.7894L7.84251 20.164C7.30675 20.6811 6.66948 21.0911 5.96758 21.3702C5.26568 21.6493 4.51308 21.792 3.75335 21.79H2.50979V20.2167C2.50774 19.4873 2.6564 18.7648 2.94716 18.091C3.23792 17.4172 3.665 16.8054 4.20369 16.2911L5.11619 15.415Z" fill="#00C6A2"/>
</svg>
