<svg width="30" height="32" viewBox="0 0 30 32" fill="none" xmlns="http://www.w3.org/2000/svg">
<path fill-rule="evenodd" clip-rule="evenodd" d="M0 16.2404C0 24.7097 6.71573 31.5754 15 31.5754C23.2843 31.5754 30 24.7097 30 16.2404C30 7.77102 23.2843 0.905273 15 0.905273C6.71573 0.905273 0 7.77102 0 16.2404ZM12.25 23.2689L12.5052 19.3599L12.505 19.3598L19.4606 12.9427C19.7658 12.6657 19.3939 12.5306 18.9887 12.7819L10.4046 18.3185L6.69668 17.1353C5.89594 16.8847 5.89019 16.3221 6.87645 15.9177L21.3252 10.2219C21.9851 9.9156 22.622 10.3839 22.3701 11.4165L19.9095 23.2709C19.7377 24.1133 19.2398 24.3148 18.55 23.9257L14.8017 21.0945L13 22.8856C12.9943 22.8912 12.9887 22.8968 12.983 22.9024C12.7815 23.103 12.6148 23.2689 12.25 23.2689Z" fill="#FEFEFE"/>
</svg>
