<svg width="24" height="24" viewBox="0 0 24 24" fill="none" xmlns="http://www.w3.org/2000/svg">
<g clip-path="url(#clip0_3905_154340)">
<path d="M7.46733 2.73047V1.98047H7.21385L7.01234 2.13425L7.46733 2.73047ZM8.47432 2.73047L9.04164 2.23991L8.8173 1.98047H8.47432V2.73047ZM15.5233 2.73047V1.98047H15.1803L14.956 2.23991L15.5233 2.73047ZM16.5303 2.73047L16.9853 2.13425L16.7838 1.98047H16.5303V2.73047ZM19.0478 4.65162L19.5401 4.08582L19.5219 4.07001L19.5027 4.0554L19.0478 4.65162ZM23.0757 8.15643L23.6879 8.58973L24.0798 8.03597L23.568 7.59063L23.0757 8.15643ZM20.5582 11.7132L20.2012 12.3727L20.7861 12.6894L21.1704 12.1465L20.5582 11.7132ZM18.5443 10.6228L18.9013 9.96324L17.7943 9.36386V10.6228H18.5443ZM18.5443 21.2659V22.0159H19.2943V21.2659H18.5443ZM5.45334 21.2659H4.70334V22.0159H5.45334V21.2659ZM5.45334 10.6228H6.20334V9.36386L5.09626 9.96324L5.45334 10.6228ZM3.43936 11.7132L2.82719 12.1465L3.21148 12.6894L3.79644 12.3727L3.43936 11.7132ZM0.921875 8.15643L0.429563 7.59063L-0.0822508 8.03597L0.309705 8.58973L0.921875 8.15643ZM4.94985 4.65162L4.49485 4.0554L4.47571 4.07001L4.45754 4.08582L4.94985 4.65162ZM9.72952 4.18207L9.1622 4.67263L9.72952 4.18207ZM7.46733 3.48047H8.47432V1.98047H7.46733V3.48047ZM7.907 3.22103L9.1622 4.67263L10.2968 3.69151L9.04164 2.23991L7.907 3.22103ZM14.8354 4.67263L16.0906 3.22103L14.956 2.23991L13.7008 3.69151L14.8354 4.67263ZM15.5233 3.48047H16.5303V1.98047H15.5233V3.48047ZM16.0753 3.32669L18.5928 5.24785L19.5027 4.0554L16.9853 2.13425L16.0753 3.32669ZM18.5554 5.21742L22.5834 8.72223L23.568 7.59063L19.5401 4.08582L18.5554 5.21742ZM22.4636 7.72313L19.9461 11.2799L21.1704 12.1465L23.6879 8.58973L22.4636 7.72313ZM20.9153 11.0536L18.9013 9.96324L18.1872 11.2823L20.2012 12.3727L20.9153 11.0536ZM17.7943 10.6228V21.2659H19.2943V10.6228H17.7943ZM18.5443 20.5159H5.45334V22.0159H18.5443V20.5159ZM6.20334 21.2659V10.6228H4.70334V21.2659H6.20334ZM5.09626 9.96324L3.08228 11.0536L3.79644 12.3727L5.81042 11.2823L5.09626 9.96324ZM4.05153 11.2799L1.53404 7.72313L0.309705 8.58973L2.82719 12.1465L4.05153 11.2799ZM1.41419 8.72223L5.44216 5.21742L4.45754 4.08582L0.429563 7.59063L1.41419 8.72223ZM5.40484 5.24785L7.92232 3.32669L7.01234 2.13425L4.49485 4.0554L5.40484 5.24785ZM9.1622 4.67263C10.6578 6.40223 13.3398 6.40223 14.8354 4.67263L13.7008 3.69151C12.8034 4.72927 11.1942 4.72927 10.2968 3.69151L9.1622 4.67263Z" fill="#00C6A2"/>
</g>
<defs>
<clipPath id="clip0_3905_154340">
<rect width="24" height="24" fill="white"/>
</clipPath>
</defs>
</svg>
