<svg width="30" height="32" viewBox="0 0 30 32" fill="none" xmlns="http://www.w3.org/2000/svg">
<path fill-rule="evenodd" clip-rule="evenodd" d="M15 0.905273C6.71573 0.905273 0 7.77102 0 16.2404C0 24.7097 6.71573 31.5754 15 31.5754C23.2843 31.5754 30 24.7097 30 16.2404C30 7.77102 23.2843 0.905273 15 0.905273ZM14.5822 13.9005L14.5508 13.3698C14.4563 11.9945 15.2852 10.7383 16.5967 10.251C17.0794 10.0778 17.8978 10.0561 18.4329 10.2077C18.6427 10.2727 19.0414 10.4893 19.3247 10.6842L19.8388 11.0416L20.4054 10.8575C20.7202 10.76 21.1398 10.5976 21.3287 10.4893C21.5071 10.3918 21.6645 10.3377 21.6645 10.3701C21.6645 10.5542 21.2762 11.1823 20.951 11.5289C20.5103 12.0162 20.6362 12.0595 21.5281 11.7346C22.0632 11.5505 22.0737 11.5505 21.9687 11.7563C21.9058 11.8646 21.5805 12.2436 21.2343 12.5901C20.6467 13.1857 20.6152 13.2507 20.6152 13.7488C20.6152 14.5177 20.2585 16.1204 19.9018 16.9976C19.2408 18.6436 17.8243 20.3438 16.4079 21.1993C14.4144 22.4013 11.7598 22.7046 9.52499 22.0007C8.78005 21.7624 7.5 21.156 7.5 21.0477C7.5 21.0152 7.88821 20.9719 8.36036 20.9611C9.34663 20.9394 10.3329 20.6578 11.1723 20.1597L11.7388 19.8132L11.0883 19.5858C10.165 19.2609 9.33613 18.5137 9.12629 17.8098C9.06334 17.5824 9.08432 17.5715 9.67188 17.5715L10.2804 17.5607L9.76631 17.3116C9.15777 16.9976 8.60168 16.467 8.32888 15.9255C8.12953 15.5357 7.87772 14.5502 7.95116 14.4744C7.97215 14.4419 8.19248 14.5069 8.4443 14.5935C9.16826 14.8642 9.26269 14.7993 8.843 14.3444C8.05609 13.5214 7.81477 12.2977 8.19248 11.139L8.37085 10.6192L9.06334 11.3231C10.4798 12.7417 12.148 13.5864 14.0576 13.8355L14.5822 13.9005Z" fill="#FEFEFE"/>
</svg>
