<svg width="30" height="32" viewBox="0 0 30 32" fill="none" xmlns="http://www.w3.org/2000/svg">
<path fill-rule="evenodd" clip-rule="evenodd" d="M15 0.905273C6.71573 0.905273 0 7.77102 0 16.2404C0 24.7097 6.71573 31.5754 15 31.5754C23.2843 31.5754 30 24.7097 30 16.2404C30 7.77102 23.2843 0.905273 15 0.905273ZM16.2213 21.0813C16.0734 21.2407 15.7847 21.2729 15.7847 21.2729H14.8284C14.8284 21.2729 12.7186 21.4001 10.86 19.4588C8.83317 17.3408 7.04346 13.1385 7.04346 13.1385C7.04346 13.1385 6.94016 12.8629 7.05207 12.7302C7.17806 12.5802 7.5216 12.5708 7.5216 12.5708L9.80746 12.5558C9.80746 12.5558 10.0227 12.5912 10.1768 12.705C10.3044 12.7993 10.3756 12.9744 10.3756 12.9744C10.3756 12.9744 10.745 13.9121 11.2341 14.7602C12.1896 16.4165 12.6341 16.7785 12.958 16.601C13.4307 16.3426 13.2891 14.26 13.2891 14.26C13.2891 14.26 13.2977 13.5045 13.0512 13.1676C12.8602 12.9069 12.5003 12.8307 12.3414 12.8095C12.2123 12.7922 12.4236 12.4922 12.6975 12.3579C13.1091 12.1561 13.8353 12.1443 14.6938 12.153C15.3629 12.16 15.5554 12.2017 15.8167 12.2653C16.4234 12.4122 16.4044 12.8829 16.3636 13.899C16.3513 14.2029 16.3371 14.5555 16.3371 14.9628C16.3371 15.0544 16.3345 15.1519 16.3318 15.2523C16.3176 15.7729 16.3013 16.3689 16.6431 16.5908C16.8184 16.7039 17.2465 16.6073 18.3178 14.7822C18.8257 13.9168 19.206 12.8998 19.206 12.8998C19.206 12.8998 19.2897 12.7184 19.4189 12.6406C19.5511 12.5613 19.7295 12.5857 19.7295 12.5857L22.1351 12.5708C22.1351 12.5708 22.8582 12.4836 22.9748 12.8118C23.0977 13.155 22.7048 13.9576 21.7219 15.2723C20.7885 16.5211 20.3348 16.98 20.3777 17.3865C20.4089 17.6827 20.7038 17.9511 21.2688 18.4771C22.4503 19.578 22.767 20.1571 22.8431 20.2963C22.8494 20.3078 22.8541 20.3163 22.8574 20.3218C23.3872 21.2038 22.2697 21.2729 22.2697 21.2729L20.1326 21.3027C20.1326 21.3027 19.674 21.3938 19.0698 20.9776C18.7534 20.7598 18.4441 20.404 18.1496 20.0651C17.6998 19.5475 17.2842 19.0694 16.9295 19.1824C16.334 19.3724 16.352 20.6595 16.352 20.6595C16.352 20.6595 16.3567 20.9352 16.2213 21.0813Z" fill="#FEFEFE"/>
</svg>
