<svg width="30" height="32" viewBox="0 0 30 32" fill="none" xmlns="http://www.w3.org/2000/svg">
<path fill-rule="evenodd" clip-rule="evenodd" d="M15 0.905273C6.71573 0.905273 0 7.77102 0 16.2404C0 24.7097 6.71573 31.5754 15 31.5754C23.2843 31.5754 30 24.7097 30 16.2404C30 7.77102 23.2843 0.905273 15 0.905273ZM21.251 10.9685C21.9394 11.1616 22.4816 11.7307 22.6656 12.4534C23 13.7631 23 16.4959 23 16.4959C23 16.4959 23 19.2287 22.6656 20.5385C22.4816 21.2612 21.9394 21.8302 21.251 22.0235C20.0034 22.3744 15 22.3744 15 22.3744C15 22.3744 9.99663 22.3744 8.7489 22.0235C8.06045 21.8302 7.51827 21.2612 7.33427 20.5385C7 19.2287 7 16.4959 7 16.4959C7 16.4959 7 13.7631 7.33427 12.4534C7.51827 11.7307 8.06045 11.1616 8.7489 10.9685C9.99663 10.6175 15 10.6175 15 10.6175C15 10.6175 20.0034 10.6175 21.251 10.9685Z" fill="#FEFEFE"/>
<path d="M13.5 19.3074V14.1957L17.5 16.7516L13.5 19.3074Z" fill="#FEFEFE"/>
</svg>
